<?xml version="1.0" encoding="utf-8"?>
<!-- Generator: Adobe Illustrator 15.1.0, SVG Export Plug-In . SVG Version: 6.00 Build 0)  -->
<!DOCTYPE svg PUBLIC "-//W3C//DTD SVG 1.1//EN" "http://www.w3.org/Graphics/SVG/1.1/DTD/svg11.dtd">
<svg version="1.1" id="Layer_1" xmlns="http://www.w3.org/2000/svg" xmlns:xlink="http://www.w3.org/1999/xlink" x="0px" y="0px"
	 width="162px" height="70.333px" viewBox="0 0 162 70.333" enable-background="new 0 0 162 70.333" xml:space="preserve">
<path fill="#FFFFFF" d="M40.826,6.429c0-1.016-0.44-1.962-1.591-1.962c-1.015,0-1.555,0.846-1.555,1.827
	c0,4.804,10.082,2.334,10.082,10.963c0,5.616-2.605,7.85-8.864,7.85c-5.178,0-8.019-1.76-8.019-7.072v-0.642h6.563v1.116
	c0,1.185,0.508,2.131,1.692,2.131c1.252,0,1.658-1.083,1.658-2.131c0-1.555-0.575-1.896-1.455-2.402
	c-0.913-0.508-2.131-0.981-3.351-1.59c-3.652-1.828-4.872-3.146-4.872-6.734c0-3.35,1.016-5.175,2.571-6.292
	C34.836,0.678,36.562,0,39.202,0c6.835,0,7.983,3.384,7.983,7.411h-6.359V6.429z"/>
<path fill="#FFFFFF" d="M58.691,22.535h-0.067c-0.981,1.792-2.64,2.571-4.839,2.571c-2.335,0-4.467-1.287-4.467-4.636V6.329h6.564
	V18.44c0,1.389,0.439,1.795,1.286,1.795c0.879,0,1.321-0.746,1.321-1.795V6.329h6.564v18.304h-6.362V22.535z"/>
<path fill="#FFFFFF" d="M66.88,6.328h6.362v2.707h0.067c0.643-1.76,2.098-3.18,3.89-3.18c0.711,0,0.914,0.067,1.116,0.101v5.99
	c-0.235-0.036-0.505-0.07-0.811-0.102c-0.305-0.035-0.575-0.035-1.251-0.035c-2.268,0-2.809,1.184-2.809,3.351v9.475H66.88V6.328z"
	/>
<path fill="#FFFFFF" d="M88.874,6.328h6.26v17.562c0,5.311-3.247,6.971-8.052,6.971c-6.869,0-7.275-3.113-7.444-5.28h5.954
	c0,0.474,0.134,0.812,0.304,1.016C86.168,26.9,86.505,27,86.98,27c1.115,0,1.588-0.44,1.588-1.69v-3.62h-0.065
	c-0.813,1.792-2.369,2.334-4.164,2.334c-4.33,0-5.209-4.637-5.209-8.898c0-4.13,0.373-9.273,5.684-9.273
	c2.064,0,3.282,0.914,3.991,2.742h0.069V6.328z M87.182,10.727c-1.286,0-1.488,1.319-1.488,4.737c0,2.538,0.202,3.892,1.455,3.892
	c1.319,0,1.522-1.354,1.522-3.892C88.671,12.046,88.468,10.727,87.182,10.727"/>
<path fill="#FFFFFF" d="M103.055,18.948c0,0.981,0.063,2.302,1.415,2.302c1.289,0,1.423-1.184,1.423-3.046h5.957
	c0,2.504-0.675,4.23-1.963,5.313c-1.282,1.082-3.146,1.59-5.382,1.59c-7.239,0-8.018-4.467-8.018-9.644
	c0-5.142,0.778-9.608,8.018-9.608c7.479,0,7.549,4.669,7.549,10.387v0.303h-8.999V18.948z M105.893,12.012
	c0-1.793-0.404-2.302-1.45-2.302c-0.948,0-1.388,0.508-1.388,2.302v1.083h2.838V12.012z"/>
<path fill="#FFFFFF" d="M113.24,6.328h6.358v2.707h0.067c0.643-1.76,2.099-3.18,3.89-3.18c0.71,0,0.913,0.067,1.115,0.101v5.99
	c-0.236-0.036-0.504-0.07-0.809-0.102c-0.307-0.035-0.578-0.035-1.254-0.035c-2.266,0-2.811,1.184-2.811,3.351v9.475h-6.558V6.328z"
	/>
<path fill="#FFFFFF" d="M125.313,6.328h6.763l1.658,11.097h0.071l1.49-11.097h6.56l-4.699,18.136
	c-1.149,4.364-1.964,6.124-6.906,6.124c-1.422,0-2.3-0.137-3.11-0.305v-4.263c0.574,0.067,1.15,0.101,1.721,0.101
	c0.545,0,0.949-0.169,1.187-0.508c0.236-0.304,0.342-0.642,0.342-0.979L125.313,6.328z"/>
<path fill="#FFFFFF" d="M35.046,27.549c2.317,0,3.625,1.843,3.625,5.486c0,3.662-1.308,5.505-3.625,5.505
	c-2.316,0-3.624-1.843-3.624-5.505C31.422,29.392,32.729,27.549,35.046,27.549 M35.046,37.55c1.328,0,2.357-1.147,2.357-4.515
	c0-3.347-1.03-4.496-2.357-4.496c-1.327,0-2.356,1.149-2.356,4.496C32.689,36.402,33.719,37.55,35.046,37.55"/>
<path fill="#FFFFFF" d="M40.412,27.787h1.071v1.464h0.039c0.594-1.168,1.624-1.702,2.693-1.702c1.604,0,2.693,0.832,2.693,2.812
	v7.941h-1.187v-7.604c0-1.447-0.595-2.159-1.801-2.159c-1.388,0-2.318,1.07-2.318,2.693v7.07h-1.19V27.787z"/>
<path fill="#FFFFFF" d="M54.398,42.436v0.544c0,2.633,1.401,3.966,4.315,3.966c2.657,0,3.984-1.543,3.984-3.149
	c0-2.27-1.403-3.268-3.762-3.843l-2.876-0.818c-3.837-1.208-5.498-2.845-5.498-5.932c0-3.936,3.248-6.114,8.188-6.114
	c6.751,0,7.452,3.45,7.452,5.69v0.483h-4.205V32.81c0-1.965-1.069-3.116-3.689-3.116c-1.806,0-3.541,0.816-3.541,3.116
	c0,1.848,1.145,2.787,3.946,3.662l2.84,0.848c3.727,1.089,5.35,2.754,5.35,5.721c0,4.6-3.395,6.507-8.706,6.507
	c-6.53,0-8.004-3.571-8.004-6.597v-0.516H54.398z"/>
<path fill="#FFFFFF" d="M80.182,47.218h-0.11c-0.997,1.453-2.877,2.331-5.09,2.331c-2.952,0-4.945-1.121-4.945-5.328V32.84h3.984
	v11.684c0,1.817,0.997,2.421,2.693,2.421c1.699,0,3.247-0.907,3.247-2.724V32.84h3.982v16.284h-3.761V47.218z"/>
<path fill="#FFFFFF" d="M87.78,32.84h3.763v1.908h0.109c0.997-1.453,2.879-2.33,5.091-2.33c3.025,0,4.943,1.12,4.943,4.417v12.289
	h-3.983V37.956c0-2.12-0.775-2.937-2.766-2.937c-1.624,0-3.174,1.059-3.174,3.177v10.928H87.78V32.84z"/>
<path fill="#FFFFFF" d="M115.666,47.127h-0.072c-0.519,1.061-1.512,2.421-4.354,2.421c-4.645,0-6.491-3.179-6.491-8.777
	c0-7.233,3.098-8.354,6.125-8.354c2.138,0,3.761,0.878,4.497,2.33h0.074v-7.234h3.984v21.612h-3.764V47.127z M112.054,35.02
	c-2.291,0-3.1,1.514-3.1,5.903c0,3.691,0.591,6.023,3.356,6.023c2.729,0,3.355-2.3,3.355-5.783
	C115.666,37.26,115.114,35.02,112.054,35.02"/>
<path fill="#FFFFFF" d="M136.288,45.735c0,0.605,0.444,1.15,1.03,1.15c0.257,0,0.518-0.031,0.666-0.091v2.12
	c-0.481,0.18-1.185,0.393-1.955,0.393c-1.771,0-3.247-0.575-3.356-2.149h-0.071c-1.073,1.605-2.623,2.391-4.948,2.391
	c-3.169,0-5.163-1.453-5.163-4.571c0-3.632,1.92-4.389,4.61-5.114l3.1-0.698c1.437-0.332,2.326-0.666,2.326-2.088
	c0-1.483-0.627-2.421-2.732-2.421c-2.654,0-3.024,1.543-3.024,3.119h-3.762c0-3.45,1.733-5.357,6.971-5.357
	c3.505,0,6.31,1.119,6.31,3.995V45.735z M132.526,40.529c-1.033,0.666-3.248,1.059-4.428,1.513
	c-1.146,0.454-1.626,1.423-1.626,2.633c0,1.362,0.814,2.452,2.475,2.452c2.399,0,3.579-1.483,3.579-3.874V40.529z"/>
<path fill="#FFFFFF" d="M143,32.84l3.433,12.229h0.072l3.17-12.229h4.172l-5.461,16.89c-1.551,4.45-2.839,5.024-6.935,4.965
	c-0.52,0-1.072-0.062-1.586-0.122V51.97c0.44,0.06,0.851,0.12,1.288,0.12c1.369,0,2.251-0.242,2.695-1.27l0.516-1.331l-5.644-16.649
	H143z"/>
<path fill="#FFFFFF" d="M32.329,52.667c-2.063,0-2.712,2.374-2.712,2.374l-0.18-2.097l-0.599,0.541l-2.757-25.891l-1.928,24.872
	l-0.121,1.606l-0.199,2.358c-0.346,2.544-0.689,0.589-0.689,0.589c-0.342-5.825-1.336-4.952-1.336-4.952
	C20.837,51.7,17.95,53.87,17.95,53.87c-2.063,0.607-3.081-0.632-3.081-0.632L9.979,40.502L5.846,52.076
	c-0.485,2.064-3.252,1.562-3.252,1.562c-0.669-0.037-1.667-0.004-2.486,0.037C0.11,53.89,0.073,54.106,0,54.308
	c0.031,0.345,0.037,0.693,0.015,1.045C1.613,55.188,4.36,55.3,4.36,55.3c0.788-0.017,2.727-1.241,2.727-1.241l3.057-8.597
	c0,0,3.12,8.388,3.412,8.799c2.465,3.467,5.423,1.195,5.423,1.195c2.454-2.77,2.829,0.529,2.829,0.529l0.497,3.112
	c1.557,5.664,2.621-0.325,2.621-0.325L26.2,39.879l1.318,15.582l0.9-0.301c-0.076,6.303,1.797,1.618,1.797,1.618
	c0.553-2.721,2.235-2.656,2.235-2.656l110.338,0.574v-2.828L32.329,52.667z"/>
<path fill="#FFFFFF" d="M157.048,33.396c-0.156-0.112-0.356-0.171-0.601-0.171c-0.099,0-0.196,0.01-0.29,0.029
	c-0.098,0.021-0.181,0.054-0.255,0.1c-0.076,0.046-0.134,0.107-0.179,0.184c-0.044,0.078-0.066,0.174-0.066,0.288
	c0,0.111,0.034,0.198,0.097,0.265c0.063,0.067,0.15,0.122,0.258,0.166c0.105,0.042,0.228,0.078,0.362,0.105
	c0.133,0.03,0.271,0.061,0.412,0.093c0.14,0.032,0.277,0.07,0.411,0.116c0.137,0.044,0.255,0.105,0.364,0.178
	c0.105,0.078,0.192,0.172,0.256,0.287c0.063,0.115,0.096,0.261,0.096,0.435c0,0.188-0.041,0.348-0.125,0.48
	c-0.085,0.133-0.194,0.243-0.324,0.326c-0.13,0.084-0.279,0.145-0.442,0.184c-0.163,0.036-0.324,0.055-0.485,0.055
	c-0.197,0-0.383-0.022-0.56-0.073c-0.176-0.05-0.331-0.124-0.465-0.225c-0.132-0.1-0.239-0.229-0.316-0.384
	c-0.077-0.158-0.115-0.342-0.115-0.557h0.446c0,0.148,0.026,0.276,0.084,0.383c0.06,0.108,0.134,0.194,0.228,0.264
	c0.093,0.069,0.205,0.119,0.327,0.153c0.126,0.033,0.256,0.049,0.387,0.049c0.105,0,0.212-0.008,0.316-0.031
	c0.107-0.018,0.205-0.053,0.29-0.1c0.086-0.047,0.154-0.113,0.206-0.194c0.056-0.083,0.08-0.189,0.08-0.316
	c0-0.123-0.029-0.221-0.096-0.298c-0.063-0.074-0.15-0.136-0.257-0.185c-0.108-0.048-0.228-0.086-0.362-0.115
	c-0.136-0.031-0.274-0.061-0.411-0.091c-0.141-0.032-0.277-0.068-0.414-0.11c-0.134-0.04-0.257-0.094-0.361-0.163
	c-0.108-0.067-0.192-0.154-0.257-0.261c-0.065-0.107-0.1-0.242-0.1-0.402c0-0.178,0.038-0.333,0.11-0.462
	c0.072-0.129,0.169-0.237,0.29-0.321c0.117-0.083,0.255-0.146,0.41-0.187c0.151-0.041,0.31-0.062,0.468-0.062
	c0.184,0,0.352,0.021,0.506,0.065c0.154,0.041,0.29,0.11,0.406,0.202c0.118,0.092,0.21,0.208,0.277,0.348
	c0.067,0.14,0.105,0.307,0.11,0.5h-0.444C157.294,33.693,157.203,33.51,157.048,33.396"/>
<polygon fill="#FFFFFF" points="159.133,32.915 160.245,35.877 161.361,32.915 162,32.915 162,36.438 161.556,36.438 
	161.556,33.508 161.548,33.508 160.446,36.438 160.047,36.438 158.945,33.508 158.935,33.508 158.935,36.438 158.49,36.438 
	158.49,32.915 "/>
<path fill="#FFFFFF" d="M37.036,62.11c-0.256,0.732-0.41,1.261-0.462,1.583l-0.385-0.024c0-0.499-0.006-0.78-0.013-0.844
	c-0.024-0.186-0.085-0.326-0.185-0.416c-0.097-0.091-0.218-0.154-0.36-0.191c-0.142-0.038-0.275-0.057-0.401-0.057
	c-0.659,0-1.229,0.349-1.706,1.045c-0.479,0.696-0.717,1.461-0.717,2.292c0,0.468,0.11,0.841,0.332,1.118
	c0.221,0.278,0.533,0.416,0.937,0.416c0.251,0,0.507-0.053,0.768-0.158c0.261-0.107,0.589-0.299,0.984-0.577l0.259,0.347
	c-0.884,0.771-1.748,1.156-2.592,1.156c-0.626,0-1.108-0.197-1.449-0.595c-0.341-0.397-0.511-0.895-0.511-1.493
	c0-0.677,0.168-1.33,0.506-1.958c0.339-0.63,0.798-1.127,1.378-1.495c0.579-0.366,1.21-0.548,1.889-0.548
	C35.856,61.709,36.433,61.843,37.036,62.11"/>
<path fill="#FFFFFF" d="M40.421,66.681c-0.34,0.358-0.655,0.627-0.941,0.804c-0.286,0.175-0.526,0.264-0.72,0.264
	c-0.076,0-0.142-0.024-0.198-0.074c-0.057-0.051-0.084-0.112-0.084-0.184c0-0.081,0.022-0.191,0.064-0.33l0.496-1.496
	c0.171-0.521,0.258-0.807,0.258-0.861c0-0.086-0.035-0.13-0.106-0.13c-0.125,0-0.325,0.15-0.599,0.451
	c-0.272,0.298-0.479,0.58-0.622,0.842c-0.142,0.265-0.325,0.818-0.548,1.661c-0.428,0-0.767,0.015-1.015,0.041
	c0.131-0.402,0.293-0.934,0.486-1.589l0.917-3.121c0.077-0.271,0.115-0.424,0.115-0.465c0-0.086-0.05-0.129-0.152-0.129
	c-0.089,0-0.222,0.017-0.397,0.046l0.086-0.301c0.67-0.161,1.206-0.349,1.608-0.563l0.177,0.163
	c-0.227,0.529-0.427,1.077-0.603,1.646l-0.462,1.499c-0.061,0.221-0.103,0.352-0.126,0.397l0.016,0.017
	c0.404-0.54,0.776-0.93,1.118-1.167c0.341-0.239,0.624-0.356,0.846-0.356c0.101,0,0.188,0.029,0.261,0.088
	c0.073,0.061,0.108,0.146,0.108,0.261c0,0.212-0.123,0.666-0.369,1.362c-0.245,0.724-0.368,1.144-0.368,1.256
	c0,0.074,0.025,0.11,0.075,0.11c0.079,0,0.249-0.117,0.511-0.347L40.421,66.681z"/>
<path fill="#FFFFFF" d="M44.654,63.956c-0.232,0.471-0.437,1.021-0.613,1.648c-0.178,0.628-0.268,0.993-0.268,1.092
	c0,0.079,0.025,0.118,0.074,0.118c0.074,0,0.24-0.113,0.495-0.338l0.177,0.205c-0.344,0.353-0.66,0.621-0.945,0.8
	c-0.287,0.179-0.501,0.269-0.639,0.269c-0.15,0-0.225-0.07-0.225-0.205c0-0.148,0.062-0.403,0.184-0.764
	c0.011-0.022,0.039-0.103,0.083-0.239l-0.017-0.016c-0.335,0.421-0.621,0.729-0.856,0.927c-0.234,0.197-0.447,0.297-0.639,0.297
	c-0.21,0-0.374-0.103-0.491-0.306c-0.118-0.203-0.177-0.47-0.177-0.802c0-0.723,0.273-1.386,0.817-1.992
	c0.544-0.604,1.211-0.906,2-0.906c0.101,0,0.346,0.013,0.737,0.042c0.1,0.013,0.181,0.02,0.241,0.02L44.654,63.956z M43.521,64.3
	c-0.15-0.079-0.28-0.118-0.393-0.118c-0.314,0-0.611,0.24-0.89,0.718c-0.281,0.479-0.42,0.968-0.42,1.463
	c0,0.315,0.095,0.471,0.286,0.471c0.14,0,0.326-0.125,0.559-0.379c0.234-0.253,0.487-0.856,0.76-1.805L43.521,64.3z"/>
<path fill="#FFFFFF" d="M48.896,66.688c-0.75,0.708-1.305,1.061-1.665,1.061c-0.181,0-0.271-0.086-0.271-0.258
	c0-0.043,0.009-0.105,0.025-0.189c0.019-0.083,0.078-0.278,0.179-0.583L47.716,65c0.027-0.067,0.041-0.133,0.041-0.197
	c0-0.081-0.034-0.121-0.101-0.121c-0.102,0-0.244,0.084-0.425,0.254c-0.183,0.171-0.359,0.373-0.525,0.603
	c-0.167,0.231-0.298,0.472-0.395,0.723c-0.097,0.25-0.238,0.705-0.424,1.365c-0.491,0-0.83,0.013-1.015,0.042
	c0.411-1.306,0.678-2.167,0.798-2.582c0.027-0.059,0.041-0.121,0.041-0.188c0-0.075-0.023-0.112-0.074-0.112
	c-0.037,0-0.117,0.044-0.233,0.132c-0.117,0.086-0.186,0.142-0.204,0.16l-0.184-0.196c0.764-0.76,1.312-1.14,1.646-1.14
	c0.133,0,0.199,0.073,0.199,0.221c0,0.175-0.151,0.652-0.453,1.429l0.016,0.021c0.834-1.114,1.527-1.67,2.079-1.67
	c0.251,0,0.377,0.12,0.377,0.358c0,0.079-0.012,0.165-0.033,0.255l-0.695,2.236c-0.017,0.052-0.025,0.096-0.025,0.129
	c0,0.056,0.027,0.083,0.082,0.083c0.092,0,0.26-0.106,0.503-0.32L48.896,66.688z"/>
<path fill="#FFFFFF" d="M53.079,63.948c-0.082,0.116-0.154,0.243-0.216,0.376c-0.148-0.016-0.289-0.026-0.427-0.026
	c0.083,0.171,0.124,0.333,0.124,0.49c0,0.404-0.157,0.785-0.469,1.146c-0.313,0.362-0.802,0.562-1.468,0.602
	c-0.139,0.158-0.209,0.263-0.209,0.316c0,0.071,0.076,0.135,0.226,0.196c0.281,0.095,0.578,0.212,0.888,0.352
	s0.52,0.264,0.624,0.376c0.106,0.111,0.159,0.245,0.159,0.4c0,0.368-0.214,0.668-0.639,0.9c-0.426,0.233-0.947,0.35-1.561,0.35
	c-0.508,0-0.928-0.079-1.261-0.234c-0.333-0.156-0.499-0.334-0.499-0.535c0-0.151,0.081-0.289,0.245-0.413
	c0.164-0.125,0.496-0.289,0.994-0.494c-0.138-0.08-0.208-0.164-0.208-0.251c0-0.173,0.281-0.48,0.844-0.927
	c0.05-0.041,0.081-0.064,0.089-0.07c-0.57-0.104-0.855-0.426-0.855-0.97c0-0.474,0.183-0.889,0.549-1.25
	c0.365-0.36,0.829-0.538,1.387-0.538c0.21,0,0.419,0.041,0.625,0.121c0.056,0.022,0.084,0.033,0.087,0.033
	c0.317,0,0.624-0.013,0.92-0.041L53.079,63.948z M49.911,67.904c-0.396,0.24-0.594,0.45-0.594,0.63c0,0.147,0.106,0.267,0.322,0.354
	c0.213,0.089,0.455,0.134,0.726,0.134c0.235,0,0.452-0.036,0.65-0.11c0.196-0.075,0.297-0.169,0.297-0.282
	c0-0.086-0.066-0.159-0.197-0.218L49.911,67.904z M50.783,66.201c0.243,0,0.438-0.178,0.589-0.535
	c0.151-0.354,0.225-0.721,0.225-1.101c0-0.353-0.123-0.53-0.368-0.53c-0.225,0-0.417,0.193-0.58,0.579
	c-0.162,0.385-0.244,0.75-0.244,1.096C50.406,66.038,50.533,66.201,50.783,66.201"/>
<path fill="#FFFFFF" d="M53.166,64.821c0.797-0.718,1.342-1.077,1.634-1.077c0.138,0,0.208,0.079,0.208,0.234
	c0,0.075-0.05,0.265-0.147,0.568l-0.667,2.021c-0.02,0.077-0.028,0.139-0.028,0.178c0,0.06,0.024,0.088,0.073,0.088
	c0.077,0,0.25-0.115,0.52-0.349l0.192,0.195c-0.339,0.337-0.661,0.601-0.968,0.788c-0.307,0.189-0.543,0.283-0.71,0.283
	s-0.25-0.073-0.25-0.217c0-0.131,0.122-0.547,0.364-1.245l0.294-0.84c0.109-0.315,0.164-0.506,0.164-0.573
	c0-0.07-0.025-0.104-0.078-0.104c-0.052,0-0.191,0.092-0.418,0.276L53.166,64.821z M55.044,61.847c0.126,0,0.229,0.046,0.312,0.136
	c0.082,0.09,0.122,0.201,0.122,0.332c0,0.187-0.059,0.367-0.176,0.539c-0.117,0.173-0.262,0.259-0.435,0.259
	c-0.116,0-0.22-0.042-0.311-0.125c-0.089-0.084-0.133-0.207-0.133-0.372c0-0.189,0.058-0.365,0.176-0.526
	C54.72,61.928,54.867,61.847,55.044,61.847"/>
<path fill="#FFFFFF" d="M59.384,66.688c-0.751,0.708-1.306,1.061-1.666,1.061c-0.181,0-0.27-0.086-0.27-0.258
	c0-0.043,0.008-0.105,0.026-0.189c0.019-0.083,0.077-0.278,0.178-0.583L58.205,65c0.026-0.067,0.041-0.133,0.041-0.197
	c0-0.081-0.035-0.121-0.103-0.121c-0.101,0-0.242,0.084-0.425,0.254c-0.182,0.171-0.357,0.373-0.525,0.603
	c-0.166,0.231-0.297,0.472-0.394,0.723c-0.096,0.25-0.238,0.705-0.423,1.365c-0.492,0-0.83,0.013-1.016,0.042
	c0.412-1.306,0.678-2.167,0.798-2.582c0.028-0.059,0.041-0.121,0.041-0.188c0-0.075-0.024-0.112-0.073-0.112
	c-0.039,0-0.116,0.044-0.233,0.132c-0.118,0.086-0.186,0.142-0.205,0.16l-0.184-0.196c0.764-0.76,1.312-1.14,1.645-1.14
	c0.133,0,0.2,0.073,0.2,0.221c0,0.175-0.151,0.652-0.453,1.429l0.015,0.021c0.835-1.114,1.529-1.67,2.08-1.67
	c0.252,0,0.377,0.12,0.377,0.358c0,0.079-0.012,0.165-0.033,0.255l-0.697,2.236c-0.016,0.052-0.023,0.096-0.023,0.129
	c0,0.056,0.026,0.083,0.082,0.083c0.091,0,0.26-0.106,0.503-0.32L59.384,66.688z"/>
<path fill="#FFFFFF" d="M63.568,63.948c-0.083,0.116-0.154,0.243-0.217,0.376c-0.147-0.016-0.288-0.026-0.426-0.026
	c0.082,0.171,0.123,0.333,0.123,0.49c0,0.404-0.156,0.785-0.469,1.146c-0.313,0.362-0.802,0.562-1.468,0.602
	c-0.139,0.158-0.208,0.263-0.208,0.316c0,0.071,0.075,0.135,0.225,0.196c0.281,0.095,0.578,0.212,0.889,0.352
	c0.312,0.14,0.519,0.264,0.624,0.376c0.106,0.111,0.159,0.245,0.159,0.4c0,0.368-0.214,0.668-0.639,0.9
	c-0.426,0.233-0.945,0.35-1.56,0.35c-0.507,0-0.928-0.079-1.261-0.234c-0.333-0.156-0.499-0.334-0.499-0.535
	c0-0.151,0.081-0.289,0.245-0.413c0.164-0.125,0.496-0.289,0.995-0.494c-0.139-0.08-0.208-0.164-0.208-0.251
	c0-0.173,0.281-0.48,0.844-0.927c0.052-0.041,0.082-0.064,0.09-0.07c-0.57-0.104-0.856-0.426-0.856-0.97
	c0-0.474,0.183-0.889,0.549-1.25c0.365-0.36,0.829-0.538,1.387-0.538c0.21,0,0.419,0.041,0.626,0.121
	c0.055,0.022,0.083,0.033,0.086,0.033c0.317,0,0.624-0.013,0.922-0.041L63.568,63.948z M60.4,67.904
	c-0.396,0.24-0.595,0.45-0.595,0.63c0,0.147,0.107,0.267,0.322,0.354c0.215,0.089,0.457,0.134,0.727,0.134
	c0.235,0,0.451-0.036,0.649-0.11c0.199-0.075,0.297-0.169,0.297-0.282c0-0.086-0.066-0.159-0.197-0.218L60.4,67.904z M61.271,66.201
	c0.243,0,0.44-0.178,0.59-0.535c0.15-0.354,0.225-0.721,0.225-1.101c0-0.353-0.123-0.53-0.369-0.53
	c-0.224,0-0.416,0.193-0.579,0.579c-0.163,0.385-0.245,0.75-0.245,1.096C60.894,66.038,61.021,66.201,61.271,66.201"/>
<path fill="#FFFFFF" d="M70.404,65.945c-0.123,0.297-0.319,0.873-0.59,1.724c-0.837-0.026-1.86-0.042-3.065-0.042
	c-0.457,0-1.046,0.016-1.77,0.042l0.09-0.287c0.009-0.003,0.037-0.009,0.085-0.017c0.367-0.067,0.58-0.116,0.641-0.148
	c0.061-0.033,0.146-0.186,0.256-0.462c0.062-0.163,0.276-0.888,0.638-2.17c0.363-1.283,0.544-1.999,0.544-2.149
	c0-0.068-0.032-0.115-0.096-0.142c-0.065-0.029-0.218-0.068-0.461-0.117c-0.01,0-0.047-0.005-0.106-0.017
	c-0.062-0.01-0.1-0.016-0.111-0.016l0.087-0.297c0.629,0.033,1.148,0.05,1.56,0.05c0.422,0,0.903-0.017,1.441-0.05l-0.078,0.297
	c-0.492,0.088-0.766,0.146-0.823,0.17c-0.058,0.026-0.109,0.079-0.152,0.16c-0.044,0.08-0.108,0.254-0.194,0.521
	c-0.086,0.265-0.226,0.75-0.42,1.458c-0.194,0.706-0.335,1.232-0.422,1.583c-0.086,0.351-0.19,0.729-0.311,1.139h1.265
	c0.344,0,0.565-0.011,0.667-0.034c0.101-0.021,0.222-0.116,0.361-0.285c0.139-0.168,0.335-0.472,0.584-0.908H70.404z"/>
<path fill="#FFFFFF" d="M70.867,64.821c0.796-0.718,1.342-1.077,1.634-1.077c0.138,0,0.208,0.079,0.208,0.234
	c0,0.075-0.05,0.265-0.147,0.568l-0.667,2.021c-0.02,0.077-0.029,0.139-0.029,0.178c0,0.06,0.024,0.088,0.073,0.088
	c0.077,0,0.25-0.115,0.521-0.349l0.192,0.195c-0.339,0.337-0.661,0.601-0.968,0.788c-0.307,0.189-0.544,0.283-0.71,0.283
	c-0.167,0-0.25-0.073-0.25-0.217c0-0.131,0.122-0.547,0.365-1.245l0.295-0.84c0.109-0.315,0.164-0.506,0.164-0.573
	c0-0.07-0.026-0.104-0.078-0.104c-0.052,0-0.191,0.092-0.418,0.276L70.867,64.821z M72.747,61.847c0.125,0,0.229,0.046,0.311,0.136
	c0.082,0.09,0.123,0.201,0.123,0.332c0,0.187-0.06,0.367-0.177,0.539c-0.117,0.173-0.263,0.259-0.434,0.259
	c-0.117,0-0.22-0.042-0.312-0.125c-0.09-0.084-0.135-0.207-0.135-0.372c0-0.189,0.06-0.365,0.178-0.526
	C72.421,61.928,72.568,61.847,72.747,61.847"/>
<path fill="#FFFFFF" d="M76.233,63.703c0.295,0.137,0.443,0.369,0.443,0.692c0,0.242-0.084,0.5-0.249,0.771
	c-0.166,0.271-0.467,0.66-0.909,1.166c-0.441,0.506-0.881,0.979-1.325,1.418h-0.335c0.006-0.452,0.008-0.825,0.008-1.124
	c0-0.667-0.013-1.13-0.04-1.384c-0.029-0.255-0.051-0.407-0.065-0.456c-0.018-0.049-0.051-0.073-0.103-0.073
	c-0.041,0-0.182,0.102-0.422,0.305l-0.167-0.196c0.684-0.718,1.15-1.077,1.399-1.077c0.068,0,0.13,0.021,0.186,0.066
	c0.055,0.046,0.104,0.169,0.142,0.373c0.038,0.202,0.06,0.597,0.063,1.185c0.004,0.585,0.009,0.934,0.015,1.046
	c0.306-0.343,0.553-0.67,0.745-0.983c0.191-0.312,0.287-0.549,0.287-0.71c0-0.151-0.082-0.226-0.247-0.226l-0.057-0.142
	C75.813,64.181,76.024,63.962,76.233,63.703"/>
<path fill="#FFFFFF" d="M79.382,66.893c-0.699,0.571-1.308,0.856-1.826,0.856c-0.277,0-0.493-0.104-0.645-0.313
	c-0.15-0.209-0.226-0.496-0.226-0.859c0-0.697,0.256-1.344,0.771-1.939c0.514-0.597,1.133-0.894,1.853-0.894
	c0.439,0,0.659,0.171,0.659,0.513c0,0.385-0.183,0.728-0.549,1.03c-0.366,0.303-0.931,0.533-1.694,0.691
	c-0.009,0.104-0.012,0.197-0.012,0.276c0,0.527,0.165,0.793,0.495,0.793c0.115,0,0.239-0.031,0.373-0.092
	c0.133-0.062,0.333-0.172,0.594-0.329L79.382,66.893z M77.781,65.603c0.435-0.113,0.753-0.282,0.954-0.502
	c0.202-0.218,0.303-0.449,0.303-0.688c0-0.178-0.071-0.268-0.216-0.268c-0.172,0-0.353,0.115-0.54,0.341
	C78.092,64.711,77.926,65.083,77.781,65.603"/>
<path fill="#FFFFFF" d="M82.812,63.994c-0.129,0.345-0.225,0.632-0.287,0.86H82.26c-0.053-0.512-0.262-0.768-0.63-0.768
	c-0.121,0-0.222,0.033-0.306,0.1s-0.124,0.149-0.124,0.25c0,0.083,0.03,0.174,0.094,0.279c0.062,0.104,0.199,0.26,0.409,0.466
	c0.476,0.457,0.714,0.864,0.714,1.224c0,0.348-0.163,0.659-0.486,0.934c-0.324,0.273-0.743,0.411-1.259,0.411
	c-0.413,0-0.768-0.111-1.065-0.334c0.158-0.307,0.296-0.6,0.414-0.88l0.2,0.042c0.016,0.241,0.101,0.418,0.251,0.532
	c0.152,0.113,0.33,0.169,0.535,0.169c0.162,0,0.284-0.043,0.369-0.124c0.084-0.083,0.127-0.178,0.127-0.287
	c0-0.211-0.159-0.49-0.476-0.835c-0.322-0.351-0.517-0.596-0.586-0.732c-0.067-0.137-0.102-0.274-0.102-0.409
	c0-0.314,0.139-0.583,0.417-0.81c0.279-0.226,0.625-0.338,1.041-0.338C82.141,63.744,82.479,63.827,82.812,63.994"/>
<path fill="#FFFFFF" d="M89.093,61.708c0.64,0,1.121,0.185,1.447,0.555c0.324,0.372,0.488,0.838,0.488,1.404
	c0,0.686-0.172,1.354-0.513,2.006c-0.343,0.652-0.805,1.167-1.387,1.552c-0.581,0.382-1.211,0.574-1.887,0.574
	c-0.653,0-1.132-0.19-1.438-0.572s-0.458-0.87-0.458-1.462c0-0.589,0.165-1.214,0.497-1.875c0.332-0.662,0.782-1.19,1.35-1.587
	C87.763,61.907,88.396,61.708,89.093,61.708 M87.635,67.32c0.252,0,0.478-0.08,0.685-0.238c0.204-0.159,0.427-0.433,0.667-0.818
	c0.239-0.386,0.428-0.822,0.564-1.309c0.137-0.488,0.204-0.965,0.204-1.434c0-0.428-0.081-0.766-0.24-1.012
	c-0.162-0.244-0.396-0.367-0.705-0.367c-0.376,0-0.731,0.194-1.066,0.586c-0.335,0.389-0.607,0.898-0.821,1.528
	c-0.212,0.629-0.319,1.172-0.319,1.625C86.603,66.839,86.947,67.32,87.635,67.32"/>
<path fill="#FFFFFF" d="M95.037,66.688c-0.752,0.708-1.307,1.061-1.667,1.061c-0.18,0-0.27-0.086-0.27-0.258
	c0-0.043,0.008-0.105,0.026-0.189c0.019-0.083,0.076-0.278,0.178-0.583L93.857,65c0.026-0.067,0.041-0.133,0.041-0.197
	c0-0.081-0.035-0.121-0.103-0.121c-0.102,0-0.243,0.084-0.426,0.254c-0.182,0.171-0.356,0.373-0.524,0.603
	c-0.166,0.231-0.298,0.472-0.395,0.723c-0.098,0.25-0.238,0.705-0.424,1.365c-0.491,0-0.829,0.013-1.015,0.042
	c0.411-1.306,0.678-2.167,0.799-2.582c0.026-0.059,0.04-0.121,0.04-0.188c0-0.075-0.024-0.112-0.073-0.112
	c-0.039,0-0.116,0.044-0.233,0.132c-0.117,0.086-0.187,0.142-0.204,0.16l-0.185-0.196c0.764-0.76,1.313-1.14,1.646-1.14
	c0.132,0,0.2,0.073,0.2,0.221c0,0.175-0.151,0.652-0.454,1.429l0.018,0.021c0.834-1.114,1.527-1.67,2.077-1.67
	c0.253,0,0.376,0.12,0.376,0.358c0,0.079-0.009,0.165-0.03,0.255l-0.697,2.236c-0.016,0.052-0.023,0.096-0.023,0.129
	c0,0.056,0.026,0.083,0.081,0.083c0.092,0,0.261-0.106,0.504-0.32L95.037,66.688z"/>
<path fill="#FFFFFF" d="M98.124,66.893c-0.699,0.571-1.309,0.856-1.826,0.856c-0.279,0-0.494-0.104-0.646-0.313
	c-0.152-0.209-0.228-0.496-0.228-0.859c0-0.697,0.258-1.344,0.771-1.939c0.516-0.597,1.133-0.894,1.854-0.894
	c0.438,0,0.658,0.171,0.658,0.513c0,0.385-0.183,0.728-0.548,1.03c-0.366,0.303-0.931,0.533-1.695,0.691
	c-0.008,0.104-0.013,0.197-0.013,0.276c0,0.527,0.166,0.793,0.497,0.793c0.112,0,0.238-0.031,0.371-0.092
	c0.135-0.062,0.332-0.172,0.594-0.329L98.124,66.893z M96.522,65.603c0.435-0.113,0.753-0.282,0.953-0.502
	c0.202-0.218,0.305-0.449,0.305-0.688c0-0.178-0.073-0.268-0.218-0.268c-0.173,0-0.353,0.115-0.541,0.341
	C96.835,64.711,96.667,65.083,96.522,65.603"/>
<path fill="#FFFFFF" d="M105.538,62.093c-0.129,0.388-0.238,0.833-0.328,1.341c-0.014,0.076-0.021,0.117-0.025,0.122l-0.396-0.025
	c-0.005-0.477-0.03-0.794-0.075-0.954c-0.045-0.157-0.148-0.272-0.308-0.339c-0.159-0.069-0.316-0.102-0.47-0.102
	c-0.253,0-0.461,0.076-0.621,0.231c-0.161,0.155-0.241,0.343-0.241,0.566c0,0.161,0.053,0.326,0.161,0.493s0.332,0.427,0.674,0.779
	c0.338,0.344,0.571,0.634,0.699,0.873c0.129,0.238,0.191,0.494,0.191,0.771c0,0.51-0.203,0.962-0.612,1.358
	c-0.411,0.396-0.985,0.592-1.728,0.592c-0.57,0-1.12-0.119-1.65-0.358c0.18-0.5,0.334-1.079,0.459-1.738h0.414
	c-0.007,0.27-0.01,0.457-0.01,0.56c0,0.223,0.025,0.395,0.073,0.515c0.047,0.122,0.121,0.227,0.222,0.314
	c0.102,0.087,0.208,0.147,0.319,0.175c0.112,0.03,0.22,0.044,0.324,0.044c0.292,0,0.525-0.1,0.702-0.301
	c0.177-0.2,0.265-0.451,0.265-0.752c0-0.199-0.042-0.396-0.129-0.587c-0.084-0.19-0.306-0.474-0.662-0.85
	c-0.333-0.348-0.561-0.623-0.682-0.823c-0.121-0.2-0.181-0.418-0.181-0.656c0-0.429,0.189-0.808,0.57-1.138
	c0.38-0.33,0.882-0.495,1.509-0.495C104.542,61.709,105.054,61.836,105.538,62.093"/>
<path fill="#FFFFFF" d="M109.459,63.793c-0.285,0.828-0.506,1.514-0.66,2.058c-0.152,0.544-0.229,0.839-0.229,0.887
	c0,0.069,0.025,0.104,0.078,0.104c0.057,0,0.231-0.117,0.519-0.351l0.178,0.197c-0.297,0.31-0.598,0.563-0.906,0.763
	c-0.308,0.199-0.549,0.299-0.724,0.299c-0.178,0-0.265-0.066-0.265-0.197c0-0.13,0.06-0.375,0.183-0.735
	c0.123-0.359,0.207-0.586,0.25-0.686l-0.017-0.017c-0.805,1.088-1.496,1.634-2.071,1.634c-0.246,0-0.368-0.115-0.368-0.344
	c0-0.118,0.024-0.264,0.077-0.433l0.341-1.069c0.173-0.543,0.266-0.828,0.277-0.856c0.028-0.086,0.04-0.151,0.04-0.193
	c0-0.05-0.021-0.075-0.064-0.075c-0.049,0-0.195,0.103-0.438,0.309l-0.176-0.204c0.774-0.76,1.323-1.14,1.646-1.14
	c0.155,0,0.232,0.083,0.232,0.25c0,0.211-0.133,0.671-0.401,1.381c-0.08,0.215-0.171,0.471-0.265,0.768
	c-0.096,0.296-0.143,0.478-0.143,0.545c0,0.088,0.033,0.133,0.105,0.133c0.079,0,0.213-0.087,0.405-0.265
	c0.194-0.176,0.378-0.389,0.558-0.637c0.178-0.247,0.314-0.494,0.405-0.741c0.092-0.246,0.218-0.668,0.384-1.263
	C108.785,63.9,109.134,63.86,109.459,63.793"/>
<path fill="#FFFFFF" d="M113.09,63.839c-0.143,0.328-0.275,0.68-0.401,1.054l-0.254-0.018c-0.027-0.069-0.072-0.104-0.133-0.104
	c-0.102,0-0.223,0.083-0.361,0.25c-0.14,0.167-0.304,0.403-0.491,0.707c-0.19,0.304-0.316,0.534-0.379,0.693
	c-0.063,0.159-0.187,0.524-0.367,1.094c-0.02,0.064-0.031,0.103-0.036,0.113c-0.43,0-0.768,0.015-1.017,0.041
	c0.571-1.667,0.856-2.59,0.856-2.768c0-0.076-0.026-0.113-0.083-0.113s-0.2,0.094-0.43,0.284l-0.176-0.189
	c0.356-0.364,0.673-0.644,0.954-0.842c0.282-0.199,0.489-0.297,0.623-0.297c0.135,0,0.2,0.074,0.2,0.222
	c0,0.138-0.018,0.266-0.054,0.379l-0.549,1.504l0.018,0.017c0.454-0.879,0.794-1.454,1.015-1.72c0.222-0.269,0.461-0.401,0.72-0.401
	C112.827,63.744,112.942,63.775,113.09,63.839"/>
<path fill="#FFFFFF" d="M116.57,63.948c-0.082,0.116-0.155,0.243-0.218,0.376c-0.147-0.016-0.288-0.026-0.426-0.026
	c0.083,0.171,0.125,0.333,0.125,0.49c0,0.404-0.159,0.785-0.47,1.146c-0.312,0.362-0.804,0.562-1.468,0.602
	c-0.139,0.158-0.211,0.263-0.211,0.316c0,0.071,0.077,0.135,0.228,0.196c0.28,0.095,0.576,0.212,0.887,0.352
	c0.312,0.14,0.52,0.264,0.625,0.376c0.104,0.111,0.157,0.245,0.157,0.4c0,0.368-0.213,0.668-0.638,0.9
	c-0.426,0.233-0.946,0.35-1.56,0.35c-0.508,0-0.93-0.079-1.263-0.234c-0.332-0.156-0.497-0.334-0.497-0.535
	c0-0.151,0.081-0.289,0.244-0.413c0.164-0.125,0.495-0.289,0.995-0.494c-0.14-0.08-0.209-0.164-0.209-0.251
	c0-0.173,0.28-0.48,0.844-0.927c0.052-0.041,0.082-0.064,0.09-0.07c-0.57-0.104-0.856-0.426-0.856-0.97
	c0-0.474,0.183-0.889,0.549-1.25c0.365-0.36,0.828-0.538,1.389-0.538c0.209,0,0.418,0.041,0.626,0.121
	c0.054,0.022,0.084,0.033,0.085,0.033c0.318,0,0.625-0.013,0.921-0.041L116.57,63.948z M113.401,67.904
	c-0.396,0.24-0.595,0.45-0.595,0.63c0,0.147,0.107,0.267,0.322,0.354c0.215,0.089,0.457,0.134,0.727,0.134
	c0.235,0,0.451-0.036,0.648-0.11c0.198-0.075,0.298-0.169,0.298-0.282c0-0.086-0.065-0.159-0.197-0.218L113.401,67.904z
	 M114.273,66.201c0.243,0,0.438-0.178,0.59-0.535c0.15-0.354,0.226-0.721,0.226-1.101c0-0.353-0.123-0.53-0.368-0.53
	c-0.225,0-0.418,0.193-0.58,0.579c-0.163,0.385-0.245,0.75-0.245,1.096C113.896,66.038,114.022,66.201,114.273,66.201"/>
<path fill="#FFFFFF" d="M119.02,66.893c-0.699,0.571-1.309,0.856-1.827,0.856c-0.276,0-0.492-0.104-0.644-0.313
	c-0.152-0.209-0.229-0.496-0.229-0.859c0-0.697,0.258-1.344,0.772-1.939c0.515-0.597,1.132-0.894,1.852-0.894
	c0.439,0,0.66,0.171,0.66,0.513c0,0.385-0.182,0.728-0.549,1.03c-0.366,0.303-0.931,0.533-1.693,0.691
	c-0.01,0.104-0.014,0.197-0.014,0.276c0,0.527,0.165,0.793,0.495,0.793c0.115,0,0.239-0.031,0.374-0.092
	c0.133-0.062,0.33-0.172,0.594-0.329L119.02,66.893z M117.417,65.603c0.435-0.113,0.753-0.282,0.953-0.502
	c0.204-0.218,0.305-0.449,0.305-0.688c0-0.178-0.072-0.268-0.217-0.268c-0.172,0-0.353,0.115-0.54,0.341
	S117.562,65.083,117.417,65.603"/>
<path fill="#FFFFFF" d="M123.019,63.839c-0.142,0.328-0.276,0.68-0.4,1.054l-0.256-0.018c-0.027-0.069-0.07-0.104-0.133-0.104
	c-0.103,0-0.222,0.083-0.361,0.25s-0.304,0.403-0.491,0.707c-0.188,0.304-0.314,0.534-0.378,0.693
	c-0.066,0.159-0.188,0.524-0.368,1.094c-0.021,0.064-0.03,0.103-0.036,0.113c-0.428,0-0.767,0.015-1.015,0.041
	c0.571-1.667,0.855-2.59,0.855-2.768c0-0.076-0.026-0.113-0.083-0.113s-0.199,0.094-0.429,0.284l-0.177-0.189
	c0.355-0.364,0.672-0.644,0.955-0.842c0.28-0.199,0.488-0.297,0.622-0.297c0.132,0,0.199,0.074,0.199,0.222
	c0,0.138-0.017,0.266-0.052,0.379l-0.55,1.504l0.017,0.017c0.456-0.879,0.795-1.454,1.017-1.72c0.22-0.269,0.461-0.401,0.72-0.401
	C122.756,63.744,122.87,63.775,123.019,63.839"/>
<path fill="#FFFFFF" d="M126.174,63.703c0.325,0.15,0.486,0.386,0.486,0.71c0,0.228-0.084,0.509-0.253,0.844
	c-0.171,0.336-0.519,0.847-1.046,1.535c-0.529,0.686-0.977,1.226-1.344,1.62c-0.367,0.395-0.661,0.662-0.88,0.802
	c-0.223,0.14-0.428,0.21-0.618,0.21c-0.195,0-0.397-0.068-0.608-0.204c0.17-0.336,0.289-0.584,0.353-0.743h0.144
	c0.123,0.164,0.248,0.247,0.377,0.247c0.323,0,0.723-0.301,1.198-0.897c-0.069-1.084-0.129-1.822-0.175-2.212
	c-0.048-0.391-0.092-0.642-0.137-0.748c-0.046-0.108-0.095-0.161-0.146-0.161c-0.061,0-0.21,0.107-0.446,0.321l-0.176-0.196
	c0.694-0.719,1.172-1.077,1.432-1.077c0.112,0,0.201,0.073,0.267,0.22c0.062,0.148,0.12,0.392,0.169,0.729
	c0.051,0.339,0.109,0.997,0.18,1.978c0.316-0.413,0.556-0.781,0.717-1.108c0.164-0.328,0.243-0.574,0.243-0.742
	c0-0.201-0.099-0.314-0.297-0.343l-0.062-0.15C125.774,64.164,125.982,63.952,126.174,63.703"/>
<path fill="#FFFFFF" d="M132.739,63.956c-0.231,0.471-0.436,1.021-0.614,1.648c-0.178,0.628-0.266,0.993-0.266,1.092
	c0,0.079,0.024,0.118,0.073,0.118c0.075,0,0.238-0.113,0.496-0.338l0.176,0.205c-0.343,0.353-0.659,0.621-0.946,0.8
	c-0.286,0.179-0.498,0.269-0.638,0.269c-0.15,0-0.225-0.07-0.225-0.205c0-0.148,0.062-0.403,0.184-0.764
	c0.01-0.022,0.04-0.103,0.083-0.239l-0.018-0.016c-0.336,0.421-0.621,0.729-0.855,0.927c-0.235,0.197-0.448,0.297-0.64,0.297
	c-0.211,0-0.373-0.103-0.491-0.306c-0.116-0.203-0.174-0.47-0.174-0.802c0-0.723,0.271-1.386,0.815-1.992
	c0.543-0.604,1.211-0.906,1.999-0.906c0.102,0,0.348,0.013,0.736,0.042c0.102,0.013,0.182,0.02,0.242,0.02L132.739,63.956z
	 M131.606,64.3c-0.151-0.079-0.282-0.118-0.395-0.118c-0.312,0-0.61,0.24-0.891,0.718c-0.279,0.479-0.419,0.968-0.419,1.463
	c0,0.315,0.096,0.471,0.287,0.471c0.139,0,0.326-0.125,0.558-0.379c0.235-0.253,0.486-0.856,0.761-1.805L131.606,64.3z"/>
<path fill="#FFFFFF" d="M135.858,63.923c-0.086,0.124-0.167,0.269-0.24,0.43c-0.223-0.022-0.501-0.038-0.832-0.047
	c-0.115,0.337-0.251,0.798-0.412,1.383c-0.16,0.585-0.241,0.93-0.241,1.032c0,0.086,0.034,0.13,0.102,0.13
	c0.137,0,0.368-0.15,0.695-0.447l0.193,0.222c-0.411,0.391-0.769,0.678-1.08,0.855c-0.31,0.179-0.555,0.269-0.734,0.269
	c-0.095,0-0.175-0.03-0.238-0.087c-0.066-0.059-0.098-0.144-0.098-0.257c0-0.1,0.042-0.291,0.128-0.575l0.746-2.531
	c-0.202,0-0.379,0.001-0.528,0.007l0.077-0.287c0.633-0.213,1.155-0.66,1.566-1.345h0.36c-0.21,0.587-0.346,0.989-0.409,1.207
	c0.498,0,0.799-0.016,0.904-0.05L135.858,63.923z"/>
<path fill="#FFFFFF" d="M141.435,63.956c-0.231,0.471-0.436,1.021-0.614,1.648c-0.178,0.628-0.266,0.993-0.266,1.092
	c0,0.079,0.024,0.118,0.073,0.118c0.073,0,0.24-0.113,0.496-0.338l0.176,0.205c-0.343,0.353-0.659,0.621-0.946,0.8
	c-0.286,0.179-0.499,0.269-0.638,0.269c-0.15,0-0.225-0.07-0.225-0.205c0-0.148,0.062-0.403,0.184-0.764
	c0.01-0.022,0.04-0.103,0.082-0.239l-0.017-0.016c-0.336,0.421-0.621,0.729-0.855,0.927c-0.235,0.197-0.448,0.297-0.64,0.297
	c-0.211,0-0.373-0.103-0.491-0.306c-0.116-0.203-0.176-0.47-0.176-0.802c0-0.723,0.272-1.386,0.817-1.992
	c0.543-0.604,1.211-0.906,1.999-0.906c0.102,0,0.348,0.013,0.738,0.042c0.1,0.013,0.18,0.02,0.24,0.02L141.435,63.956z M140.3,64.3
	c-0.149-0.079-0.28-0.118-0.393-0.118c-0.312,0-0.61,0.24-0.891,0.718c-0.28,0.479-0.419,0.968-0.419,1.463
	c0,0.315,0.096,0.471,0.287,0.471c0.139,0,0.326-0.125,0.558-0.379c0.235-0.253,0.486-0.856,0.761-1.805L140.3,64.3z"/>
<path fill="#FFFFFF" d="M150.048,61.847c-0.156,0.465-0.302,1.048-0.438,1.75h-0.336c-0.016-0.203-0.024-0.404-0.024-0.605
	c0-0.22-0.015-0.371-0.042-0.453c-0.031-0.082-0.086-0.133-0.172-0.153c-0.083-0.019-0.244-0.029-0.481-0.029h-0.544
	c-0.253,0.847-0.525,1.833-0.822,2.955c-0.295,1.124-0.445,1.717-0.445,1.779c0,0.056,0.024,0.096,0.068,0.119
	c0.046,0.023,0.262,0.072,0.646,0.143c0.005,0,0.025,0.004,0.057,0.012c0.048,0.012,0.075,0.018,0.088,0.018l-0.088,0.288
	c-0.723-0.029-1.233-0.042-1.533-0.042c-0.47,0-0.978,0.013-1.522,0.042l0.08-0.288c0.055-0.013,0.121-0.027,0.201-0.038
	c0.305-0.055,0.497-0.1,0.574-0.132c0.078-0.031,0.137-0.099,0.176-0.2c0.041-0.102,0.132-0.401,0.281-0.896l0.56-1.896
	c0.226-0.771,0.398-1.392,0.521-1.864h-0.521c-0.229,0-0.392,0.012-0.493,0.036c-0.101,0.024-0.197,0.086-0.285,0.187
	c-0.09,0.103-0.2,0.292-0.335,0.568c-0.132,0.277-0.203,0.427-0.208,0.449h-0.367c0.206-0.652,0.365-1.235,0.475-1.75
	c0.6,0.033,1.405,0.05,2.414,0.05C148.617,61.897,149.456,61.88,150.048,61.847"/>
<path fill="#FFFFFF" d="M149.635,64.821c0.797-0.718,1.343-1.077,1.634-1.077c0.139,0,0.209,0.079,0.209,0.234
	c0,0.075-0.049,0.265-0.147,0.568l-0.668,2.021c-0.02,0.077-0.028,0.139-0.028,0.178c0,0.06,0.024,0.088,0.074,0.088
	c0.075,0,0.25-0.115,0.52-0.349l0.192,0.195c-0.339,0.337-0.662,0.601-0.969,0.788c-0.307,0.189-0.544,0.283-0.71,0.283
	s-0.249-0.073-0.249-0.217c0-0.131,0.12-0.547,0.363-1.245l0.295-0.84c0.11-0.315,0.165-0.506,0.165-0.573
	c0-0.07-0.025-0.104-0.08-0.104c-0.052,0-0.189,0.092-0.416,0.276L149.635,64.821z M151.513,61.847c0.126,0,0.231,0.046,0.312,0.136
	c0.082,0.09,0.123,0.201,0.123,0.332c0,0.187-0.061,0.367-0.177,0.539c-0.118,0.173-0.261,0.259-0.434,0.259
	c-0.117,0-0.22-0.042-0.312-0.125c-0.09-0.084-0.135-0.207-0.135-0.372c0-0.189,0.061-0.365,0.177-0.526
	C151.188,61.928,151.336,61.847,151.513,61.847"/>
<path fill="#FFFFFF" d="M157.852,66.698c-0.32,0.325-0.632,0.583-0.934,0.77c-0.304,0.188-0.553,0.282-0.746,0.282
	c-0.184,0-0.273-0.083-0.273-0.25c0-0.084,0.047-0.281,0.141-0.592c0.095-0.31,0.188-0.599,0.284-0.863
	c0.068-0.188,0.146-0.427,0.234-0.713c0.091-0.287,0.135-0.462,0.135-0.527c0-0.092-0.036-0.137-0.105-0.137
	c-0.108,0-0.306,0.154-0.589,0.458c-0.283,0.307-0.488,0.599-0.622,0.876c-0.133,0.277-0.31,0.819-0.534,1.626
	c-0.485,0-0.829,0.015-1.031,0.041c0.564-1.688,0.848-2.636,0.848-2.839c0-0.089-0.038-0.134-0.11-0.134
	c-0.093,0-0.273,0.151-0.539,0.452s-0.472,0.585-0.617,0.853c-0.148,0.267-0.315,0.766-0.51,1.496
	c-0.021,0.077-0.031,0.122-0.037,0.133c-0.464,0-0.806,0.015-1.024,0.041c0.191-0.52,0.381-1.104,0.569-1.752
	c0.193-0.647,0.285-0.99,0.285-1.024c0-0.077-0.028-0.114-0.089-0.114c-0.032,0-0.073,0.022-0.121,0.064l-0.301,0.254l-0.185-0.214
	c0.378-0.381,0.705-0.667,0.985-0.855c0.278-0.19,0.497-0.284,0.654-0.284c0.138,0,0.208,0.071,0.208,0.213
	c0,0.266-0.151,0.751-0.455,1.448l0.016,0.018c0.858-1.12,1.536-1.679,2.031-1.679c0.213,0,0.319,0.117,0.319,0.35
	c0,0.238-0.128,0.675-0.385,1.311l0.017,0.018c0.838-1.12,1.529-1.679,2.079-1.679c0.257,0,0.386,0.12,0.386,0.359
	c0,0.117-0.013,0.224-0.039,0.322l-0.689,2.117c-0.03,0.072-0.046,0.136-0.046,0.188c0,0.075,0.029,0.114,0.086,0.114
	c0.079,0,0.25-0.124,0.513-0.368L157.852,66.698z"/>
<path fill="#FFFFFF" d="M160.941,66.893c-0.697,0.571-1.307,0.856-1.825,0.856c-0.277,0-0.494-0.104-0.645-0.313
	c-0.152-0.209-0.229-0.496-0.229-0.859c0-0.697,0.259-1.344,0.773-1.939c0.515-0.597,1.132-0.894,1.854-0.894
	c0.438,0,0.658,0.171,0.658,0.513c0,0.385-0.184,0.728-0.549,1.03c-0.366,0.303-0.931,0.533-1.695,0.691
	c-0.008,0.104-0.012,0.197-0.012,0.276c0,0.527,0.165,0.793,0.496,0.793c0.113,0,0.238-0.031,0.372-0.092
	c0.132-0.062,0.331-0.172,0.593-0.329L160.941,66.893z M159.342,65.603c0.435-0.113,0.749-0.282,0.953-0.502
	c0.202-0.218,0.303-0.449,0.303-0.688c0-0.178-0.072-0.268-0.217-0.268c-0.172,0-0.353,0.115-0.541,0.341
	C159.653,64.711,159.487,65.083,159.342,65.603"/>
</svg>
