<?xml version="1.0" encoding="utf-8"?>
<!-- Generator: Adobe Illustrator 19.2.1, SVG Export Plug-In . SVG Version: 6.00 Build 0)  -->
<svg version="1.1" id="Layer_1" xmlns="http://www.w3.org/2000/svg" xmlns:xlink="http://www.w3.org/1999/xlink" x="0px" y="0px"
	 viewBox="0 0 218.1 83.3" style="enable-background:new 0 0 218.1 83.3;" xml:space="preserve">
<style type="text/css">
	.st0{fill:#EF4723;}
	.st1{fill:#FFFFFF;}
	.st2{opacity:0.45;fill-rule:evenodd;clip-rule:evenodd;fill:url(#SVGID_1_);}
	.st3{fill-rule:evenodd;clip-rule:evenodd;fill:#FFFFFF;}
	.st4{opacity:0.45;fill-rule:evenodd;clip-rule:evenodd;fill:url(#SVGID_2_);}
</style>
<g>
	<g>
		<path class="st0" d="M103,22.1c1.6,1.4,2.6,3.5,2.6,5.8c0,4.2-3.4,7.6-7.6,7.6h-9.7V11.6h9.7c3.5,0,6.3,2.9,6.3,6.4
			C104.4,19.5,103.9,20.9,103,22.1z M93.4,20.2h4.7c0.6-0.2,1.1-1.1,1.1-2.2c0-1.2-0.5-2.2-1.2-2.2h-4.6V20.2z M100.5,27.8
			c0-1.8-1-3.3-2.4-3.4h-4.7v6.7h4.6C99.4,31.2,100.5,29.7,100.5,27.8z"/>
		<path class="st0" d="M125.5,27.9l5.1,7.6h-5.7l-4.4-6.5h-3.8v6.5h-5.1V11.6h9.6c4.9,0,8.8,3.8,8.8,8.7
			C130,23.6,128.2,26.4,125.5,27.9z M116.7,24.7h4.4c2.1,0,3.8-1.9,3.8-4.4c0-2.6-1.7-4.4-3.8-4.4h-4.4V24.7z"/>
		<path class="st0" d="M153.6,31.2v4.2h-17.2V11.6H153v4.2h-11.6v5.1h9.5v4.3h-9.5v6H153.6z"/>
		<path class="st0" d="M180.1,35.4h-5.5l-1.9-4.6h-8.1l-1.9,4.6h-5.5l9.8-23.8h3.3L180.1,35.4z M171.1,26.6l-2.4-6.9
			c-0.7,2-1.6,4.6-2.4,6.9H171.1z"/>
		<path class="st0" d="M196.3,21.7c3.6,4.3,8,9.6,11.5,13.8H201l-8.6-10.6l-2.2,1.8v8.7h-5.1V11.6h5.1v9.1c3.5-3,7.2-6.1,10.6-9.1
			h7.3L196.3,21.7z"/>
	</g>
	<g>
		<path class="st1" d="M111.1,59.5c0,6.8-5.4,12-12.1,12c-6.7,0-12.1-5.2-12.1-12c0-6.8,5.4-12,12.1-12
			C105.8,47.6,111.1,52.8,111.1,59.5z M92,59.5c0,4,2.9,7.9,7,7.9c4.2,0,7-3.8,7-7.9s-2.8-7.8-7-7.8C95,51.7,92,55.5,92,59.5z"/>
		<path class="st1" d="M126.6,65.5h-4.4v5.8h-5V47.8h9.5c4.8,0,8.6,4,8.6,8.8C135.2,61.5,131.4,65.4,126.6,65.5z M130.2,56.6
			c0-2.5-1.7-4.7-3.7-4.7h-4.4v9.3h4.4C128.6,61.3,130.2,59.2,130.2,56.6z"/>
		<path class="st1" d="M158.6,67.1v4.2h-17V47.8H158V52h-11.4v5h9.3v4.2h-9.3v5.9H158.6z"/>
		<path class="st1" d="M186.3,71.3h-5.4l-10.4-15.4v15.4h-5V47.8h5.3l10.4,15.4V47.8h5V71.3z"/>
	</g>
	<path class="st0" d="M17,57.8c1.2,4.9,0.3,9.2-3.2,12.9c-0.1,0.1-0.1,0.2-0.3,0.6c11.5,0,22.7,0,34,0c0.9,0,1-0.3,1-1.1
		c0-1.8,0.1-3.7,0-5.5c-0.1-1.2,0.4-1.5,1.5-1.4c1.1,0.1,2.1,0,3.2,0c2.9,0,4.8-1.9,4.9-4.8c0.1-3.2,0.1-6.5,0-9.7
		c0-1.1,0.2-1.5,1.4-1.5c3.5,0.1,3.5,0,3-3.5c-0.6-4.7-0.8-9.5-1.8-14.2c-2.4-12-12.2-20.2-24-20.6c-12.7-0.4-23.3,8.3-25.9,19.7
		c-1.3,5.7-0.5,11.2,1.6,16.5C13.9,49.5,15.9,53.5,17,57.8z"/>
	
		<linearGradient id="SVGID_1_" gradientUnits="userSpaceOnUse" x1="915.0382" y1="47.2977" x2="915.0382" y2="27.6061" gradientTransform="matrix(-1 0 0 1 966.1291 0)">
		<stop  offset="0.4216" style="stop-color:#FFFFFF;stop-opacity:0"/>
		<stop  offset="1" style="stop-color:#000000;stop-opacity:0.6"/>
	</linearGradient>
	<polygon class="st2" points="43.7,47.3 62.2,43.3 61,32.7 59.9,27.6 39.9,27.6 	"/>
	<path class="st3" d="M35.5,42.7c0,0-11.8-8.6-11.8-14.9c0-6,9.2-8.6,11.8-0.7c2.6-7.9,11.8-5.3,11.8,0.7
		C47.3,34.2,35.5,42.7,35.5,42.7"/>
</g>
<g>
	<path class="st0" d="M17.8,196.5c1.5,5.8,0.4,11-3.8,15.4c-0.1,0.1-0.2,0.3-0.4,0.7c13.7,0,27.1,0,40.6,0c1,0,1.2-0.4,1.2-1.3
		c-0.1-2.2,0.1-4.4-0.1-6.6c-0.1-1.4,0.4-1.8,1.8-1.7c1.3,0.1,2.6,0,3.8,0c3.4-0.1,5.8-2.3,5.8-5.7c0.1-3.8,0.1-7.7,0-11.5
		c0-1.3,0.2-1.8,1.7-1.8c4.2,0.1,4.1,0,3.6-4.2c-0.8-5.6-1-11.3-2.1-16.9c-2.9-14.3-14.6-24.1-28.6-24.6
		c-15.2-0.5-27.7,9.9-30.9,23.5c-1.6,6.8-0.5,13.3,1.9,19.7C14.1,186.6,16.5,191.3,17.8,196.5z"/>
	
		<linearGradient id="SVGID_2_" gradientUnits="userSpaceOnUse" x1="907.7006" y1="183.945" x2="907.7006" y2="160.4567" gradientTransform="matrix(-1 0 0 1 966.1291 0)">
		<stop  offset="0.4216" style="stop-color:#FFFFFF;stop-opacity:0"/>
		<stop  offset="1" style="stop-color:#000000;stop-opacity:0.6"/>
	</linearGradient>
	<path class="st4" d="M49.6,183.9l22.1-4.7l-1.1-11.7c0-0.1,0-0.2,0-0.2l-1.3-6.8H45.1L49.6,183.9z"/>
	<path class="st3" d="M39.8,178.5c0,0-14-10.2-14-17.8c0-7.2,10.9-10.3,14-0.9c3.1-9.4,14-6.3,14,0.9
		C53.9,168.3,39.8,178.5,39.8,178.5"/>
</g>
</svg>
